<svg width="473" height="416" viewBox="0 0 473 416" fill="none" xmlns="http://www.w3.org/2000/svg">
<rect width="473" height="416" fill="white"/>
<path d="M131.034 173V138.091H138.415V166.915H153.381V173H131.034ZM169.662 173.511C167.014 173.511 164.724 172.949 162.792 171.824C160.872 170.687 159.389 169.108 158.343 167.085C157.298 165.051 156.775 162.693 156.775 160.011C156.775 157.307 157.298 154.943 158.343 152.92C159.389 150.886 160.872 149.307 162.792 148.182C164.724 147.045 167.014 146.477 169.662 146.477C172.309 146.477 174.593 147.045 176.514 148.182C178.446 149.307 179.934 150.886 180.98 152.92C182.025 154.943 182.548 157.307 182.548 160.011C182.548 162.693 182.025 165.051 180.98 167.085C179.934 169.108 178.446 170.687 176.514 171.824C174.593 172.949 172.309 173.511 169.662 173.511ZM169.696 167.886C170.9 167.886 171.906 167.545 172.713 166.864C173.52 166.17 174.128 165.227 174.537 164.034C174.957 162.841 175.167 161.483 175.167 159.96C175.167 158.438 174.957 157.08 174.537 155.886C174.128 154.693 173.52 153.75 172.713 153.057C171.906 152.364 170.9 152.017 169.696 152.017C168.48 152.017 167.457 152.364 166.628 153.057C165.809 153.75 165.19 154.693 164.77 155.886C164.361 157.08 164.156 158.438 164.156 159.96C164.156 161.483 164.361 162.841 164.77 164.034C165.19 165.227 165.809 166.17 166.628 166.864C167.457 167.545 168.48 167.886 169.696 167.886ZM198.765 183.364C196.413 183.364 194.396 183.04 192.714 182.392C191.043 181.756 189.714 180.886 188.725 179.784C187.737 178.682 187.095 177.443 186.799 176.068L193.515 175.165C193.72 175.688 194.043 176.176 194.487 176.631C194.93 177.085 195.515 177.449 196.242 177.722C196.981 178.006 197.879 178.148 198.936 178.148C200.515 178.148 201.816 177.761 202.839 176.989C203.873 176.227 204.39 174.949 204.39 173.153V168.364H204.083C203.765 169.091 203.288 169.778 202.651 170.426C202.015 171.074 201.197 171.602 200.197 172.011C199.197 172.42 198.004 172.625 196.617 172.625C194.651 172.625 192.862 172.17 191.248 171.261C189.646 170.341 188.367 168.937 187.413 167.051C186.47 165.153 185.998 162.756 185.998 159.858C185.998 156.892 186.481 154.415 187.447 152.426C188.413 150.437 189.697 148.949 191.299 147.96C192.913 146.972 194.68 146.477 196.6 146.477C198.066 146.477 199.293 146.727 200.282 147.227C201.271 147.716 202.066 148.33 202.668 149.068C203.282 149.795 203.754 150.511 204.083 151.216H204.356V146.818H211.566V173.256C211.566 175.483 211.021 177.347 209.93 178.847C208.839 180.347 207.328 181.472 205.396 182.222C203.475 182.983 201.265 183.364 198.765 183.364ZM198.918 167.17C200.089 167.17 201.078 166.881 201.884 166.301C202.703 165.71 203.328 164.869 203.759 163.778C204.203 162.676 204.424 161.358 204.424 159.824C204.424 158.29 204.208 156.96 203.776 155.835C203.345 154.699 202.72 153.818 201.901 153.193C201.083 152.568 200.089 152.256 198.918 152.256C197.725 152.256 196.72 152.58 195.901 153.227C195.083 153.864 194.464 154.75 194.043 155.886C193.623 157.023 193.413 158.335 193.413 159.824C193.413 161.335 193.623 162.642 194.043 163.744C194.475 164.835 195.095 165.682 195.901 166.284C196.72 166.875 197.725 167.17 198.918 167.17ZM228.874 173.511C226.226 173.511 223.937 172.949 222.005 171.824C220.084 170.687 218.601 169.108 217.556 167.085C216.511 165.051 215.988 162.693 215.988 160.011C215.988 157.307 216.511 154.943 217.556 152.92C218.601 150.886 220.084 149.307 222.005 148.182C223.937 147.045 226.226 146.477 228.874 146.477C231.522 146.477 233.806 147.045 235.726 148.182C237.658 149.307 239.147 150.886 240.192 152.92C241.238 154.943 241.761 157.307 241.761 160.011C241.761 162.693 241.238 165.051 240.192 167.085C239.147 169.108 237.658 170.687 235.726 171.824C233.806 172.949 231.522 173.511 228.874 173.511ZM228.908 167.886C230.113 167.886 231.118 167.545 231.925 166.864C232.732 166.17 233.34 165.227 233.749 164.034C234.17 162.841 234.38 161.483 234.38 159.96C234.38 158.438 234.17 157.08 233.749 155.886C233.34 154.693 232.732 153.75 231.925 153.057C231.118 152.364 230.113 152.017 228.908 152.017C227.692 152.017 226.67 152.364 225.84 153.057C225.022 153.75 224.403 154.693 223.982 155.886C223.573 157.08 223.368 158.438 223.368 159.96C223.368 161.483 223.573 162.841 223.982 164.034C224.403 165.227 225.022 166.17 225.84 166.864C226.67 167.545 227.692 167.886 228.908 167.886Z" fill="#111827"/>
<g clip-path="url(#clip0_1714_39325)">
<path d="M203.843 272.738C201.18 272.738 198.889 272.193 196.97 271.104C195.051 270.015 193.581 268.468 192.561 266.462C191.541 264.474 191.031 262.148 191.031 259.486C191.031 256.858 191.593 254.55 192.717 252.561C193.841 250.556 195.405 249.009 197.411 247.919C199.434 246.83 201.733 246.285 204.309 246.285C205.623 246.285 206.894 246.424 208.122 246.7C209.366 246.96 210.438 247.323 211.337 247.79L210.819 252.224C208.709 251.256 206.54 250.772 204.309 250.772C201.612 250.772 199.572 251.559 198.189 253.132C196.806 254.723 196.114 256.815 196.114 259.408C196.114 262.088 196.789 264.232 198.137 265.84C199.503 267.447 201.465 268.251 204.024 268.251C205.061 268.251 206.228 268.122 207.525 267.862V263.324H204.024V259.486H212.167V270.793C211.216 271.363 210.015 271.83 208.563 272.193C207.093 272.556 205.52 272.738 203.843 272.738ZM224.227 272.582C222.307 272.582 220.648 272.159 219.247 271.312C217.847 270.464 216.766 269.323 216.006 267.888C215.262 266.471 214.89 264.897 214.89 263.168C214.89 261.457 215.262 259.875 216.006 258.422C216.766 256.97 217.847 255.82 219.247 254.973C220.648 254.126 222.307 253.703 224.227 253.703C226.128 253.703 227.779 254.126 229.18 254.973C230.598 255.82 231.678 256.97 232.422 258.422C233.165 259.875 233.537 261.457 233.537 263.168C233.537 264.897 233.165 266.471 232.422 267.888C231.678 269.323 230.598 270.464 229.18 271.312C227.779 272.159 226.128 272.582 224.227 272.582ZM224.227 268.874C225.696 268.874 226.846 268.355 227.676 267.318C228.523 266.28 228.946 264.897 228.946 263.168C228.946 261.439 228.523 260.048 227.676 258.993C226.846 257.938 225.696 257.411 224.227 257.411C222.74 257.411 221.581 257.938 220.751 258.993C219.922 260.048 219.507 261.439 219.507 263.168C219.507 264.897 219.922 266.28 220.751 267.318C221.581 268.355 222.74 268.874 224.227 268.874ZM244.922 272.582C243.003 272.582 241.343 272.159 239.942 271.312C238.542 270.464 237.461 269.323 236.701 267.888C235.957 266.471 235.586 264.897 235.586 263.168C235.586 261.457 235.957 259.875 236.701 258.422C237.461 256.97 238.542 255.82 239.942 254.973C241.343 254.126 243.003 253.703 244.922 253.703C246.824 253.703 248.475 254.126 249.875 254.973C251.293 255.82 252.373 256.97 253.117 258.422C253.86 259.875 254.232 261.457 254.232 263.168C254.232 264.897 253.86 266.471 253.117 267.888C252.373 269.323 251.293 270.464 249.875 271.312C248.475 272.159 246.824 272.582 244.922 272.582ZM244.922 268.874C246.391 268.874 247.541 268.355 248.371 267.318C249.218 266.28 249.642 264.897 249.642 263.168C249.642 261.439 249.218 260.048 248.371 258.993C247.541 257.938 246.391 257.411 244.922 257.411C243.435 257.411 242.276 257.938 241.447 258.993C240.617 260.048 240.202 261.439 240.202 263.168C240.202 264.897 240.617 266.28 241.447 267.318C242.276 268.355 243.435 268.874 244.922 268.874ZM269.429 244.989H273.916V272.219H269.663L269.611 271.052C268.902 271.571 268.167 271.951 267.406 272.193C266.646 272.453 265.747 272.582 264.709 272.582C262.928 272.582 261.407 272.159 260.145 271.312C258.865 270.464 257.906 269.323 257.266 267.888C256.609 266.471 256.281 264.897 256.281 263.168C256.281 261.457 256.609 259.883 257.266 258.448C257.906 257.031 258.865 255.898 260.145 255.051C261.407 254.204 262.928 253.78 264.709 253.78C266.473 253.78 268.046 254.264 269.429 255.233V244.989ZM265.358 268.874C266.775 268.874 267.847 268.364 268.573 267.344C269.282 266.341 269.637 264.949 269.637 263.168C269.637 261.405 269.282 260.013 268.573 258.993C267.847 257.99 266.775 257.489 265.358 257.489C263.957 257.489 262.859 258.008 262.064 259.045C261.286 260.082 260.897 261.457 260.897 263.168C260.897 264.897 261.286 266.28 262.064 267.318C262.859 268.355 263.957 268.874 265.358 268.874ZM295.7 253.78C297.429 253.78 298.907 254.204 300.135 255.051C301.362 255.898 302.296 257.031 302.936 258.448C303.558 259.883 303.869 261.457 303.869 263.168C303.869 264.897 303.558 266.471 302.936 267.888C302.296 269.323 301.362 270.464 300.135 271.312C298.907 272.159 297.429 272.582 295.7 272.582C293.798 272.582 292.069 272.064 290.513 271.026L290.436 272.219H286.234V244.989H290.721V255.414C292.208 254.325 293.867 253.78 295.7 253.78ZM295.052 268.874C296.383 268.874 297.42 268.355 298.164 267.318C298.89 266.28 299.253 264.897 299.253 263.168C299.253 261.457 298.89 260.082 298.164 259.045C297.42 258.008 296.383 257.489 295.052 257.489C293.53 257.489 292.389 257.99 291.629 258.993C290.885 260.013 290.513 261.405 290.513 263.168C290.513 264.949 290.885 266.341 291.629 267.344C292.389 268.364 293.53 268.874 295.052 268.874ZM315.228 272.582C313.326 272.582 311.675 272.159 310.275 271.312C308.857 270.464 307.777 269.323 307.033 267.888C306.29 266.471 305.918 264.897 305.918 263.168C305.918 261.457 306.29 259.875 307.033 258.422C307.777 256.97 308.857 255.82 310.275 254.973C311.675 254.126 313.326 253.703 315.228 253.703C317.147 253.703 318.807 254.126 320.208 254.973C321.608 255.82 322.689 256.97 323.449 258.422C324.193 259.875 324.564 261.457 324.564 263.168C324.564 264.897 324.193 266.471 323.449 267.888C322.689 269.323 321.608 270.464 320.208 271.312C318.807 272.159 317.147 272.582 315.228 272.582ZM315.228 268.874C316.715 268.874 317.874 268.355 318.703 267.318C319.533 266.28 319.948 264.897 319.948 263.168C319.948 261.439 319.533 260.048 318.703 258.993C317.874 257.938 316.715 257.411 315.228 257.411C313.759 257.411 312.609 257.938 311.779 258.993C310.932 260.048 310.508 261.439 310.508 263.168C310.508 264.897 310.932 266.28 311.779 267.318C312.609 268.355 313.759 268.874 315.228 268.874ZM329.155 281.011L333.174 271.026L325.628 254.066H330.633L335.275 265.762L339.995 254.066H345L333.641 281.011H329.155Z" fill="#111827"/>
<path d="M146.748 243.628C146.748 244.032 146.909 244.42 147.195 244.706C147.481 244.992 147.869 245.153 148.273 245.153C148.678 245.153 149.066 244.992 149.352 244.706C149.638 244.42 149.799 244.032 149.799 243.628C149.799 243.223 149.638 242.835 149.352 242.549C149.066 242.263 148.678 242.103 148.273 242.103C147.869 242.103 147.481 242.263 147.195 242.549C146.909 242.835 146.748 243.223 146.748 243.628ZM149.962 245.688C149.962 246.092 150.123 246.48 150.409 246.766C150.695 247.052 151.083 247.213 151.488 247.213C151.892 247.213 152.28 247.052 152.566 246.766C152.852 246.48 153.013 246.092 153.013 245.688C153.013 245.283 152.852 244.895 152.566 244.609C152.28 244.323 151.892 244.163 151.488 244.163C151.083 244.163 150.695 244.323 150.409 244.609C150.123 244.895 149.962 245.283 149.962 245.688ZM143.674 261.917C144.897 262.278 146.222 262.209 147.649 261.709C147.818 259.162 147.296 257.158 146.353 257.026C145.319 256.881 144.15 259.04 143.674 261.917ZM170.426 272.655C171.543 274.118 172.407 276.094 172.891 278.37C174.55 277.014 176.558 276.22 178.723 276.22C179.516 276.22 180.289 276.327 181.031 276.529C176.837 277.669 173.619 281.851 173.108 287.017H142.6C142.23 285.569 142.044 284.08 142.048 282.586C142.048 279.392 142.869 276.475 144.221 274.251C143.344 271.228 142.854 267.847 142.854 264.28C142.854 263.492 142.878 262.712 142.925 261.943C136.851 260.557 132.238 257.21 130.955 253.096C130.512 253.041 130.084 252.899 129.696 252.677C129.309 252.455 128.969 252.159 128.697 251.804C128.425 251.45 128.226 251.045 128.112 250.614C127.998 250.182 127.971 249.732 128.032 249.289C128.093 248.847 128.242 248.421 128.469 248.037C128.697 247.653 128.998 247.317 129.356 247.051C129.714 246.784 130.122 246.591 130.555 246.483C130.989 246.375 131.439 246.354 131.88 246.422C134.595 242.016 141.316 238.898 149.178 238.898C151.496 238.898 153.714 239.17 155.76 239.664C155.993 235.836 156.895 232.983 157.972 232.983C159.191 232.983 160.186 236.641 160.241 241.23L160.457 241.333C162.225 237.613 164.315 235.087 165.356 235.529C166.464 235.999 165.977 239.67 164.284 243.853C165.571 244.997 166.546 246.295 167.131 247.693C169.751 251.919 171.374 257.79 171.374 264.281C171.374 267.232 171.038 270.056 170.426 272.655Z" fill="#4F46E5"/>
</g>
<defs>
<clipPath id="clip0_1714_39325">
<rect width="217" height="56" fill="white" transform="translate(128 232)"/>
</clipPath>
</defs>
</svg>
