<svg xmlns="http://www.w3.org/2000/svg" viewBox="128 232 56 56">
  <rect x="128" y="232" width="56" height="56" fill="white"/>
  <path d="M146.748 243.628C146.748 244.032 146.909 244.42 147.195 244.706C147.481 244.992 147.869 245.153 148.273 245.153C148.678 245.153 149.066 244.992 149.352 244.706C149.638 244.42 149.799 244.032 149.799 243.628C149.799 243.223 149.638 242.835 149.352 242.549C149.066 242.263 148.678 242.103 148.273 242.103C147.869 242.103 147.481 242.263 147.195 242.549C146.909 242.835 146.748 243.223 146.748 243.628ZM149.962 245.688C149.962 246.092 150.123 246.48 150.409 246.766C150.695 247.052 151.083 247.213 151.488 247.213C151.892 247.213 152.28 247.052 152.566 246.766C152.852 246.48 153.013 246.092 153.013 245.688C153.013 245.283 152.852 244.895 152.566 244.609C152.28 244.323 151.892 244.163 151.488 244.163C151.083 244.163 150.695 244.323 150.409 244.609C150.123 244.895 149.962 245.283 149.962 245.688ZM143.674 261.917C144.897 262.278 146.222 262.209 147.649 261.709C147.818 259.162 147.296 257.158 146.353 257.026C145.319 256.881 144.15 259.04 143.674 261.917ZM170.426 272.655C171.543 274.118 172.407 276.094 172.891 278.37C174.55 277.014 176.558 276.22 178.723 276.22C179.516 276.22 180.289 276.327 181.031 276.529C176.837 277.669 173.619 281.851 173.108 287.017H142.6C142.23 285.569 142.044 284.08 142.048 282.586C142.048 279.392 142.869 276.475 144.221 274.251C143.344 271.228 142.854 267.847 142.854 264.28C142.854 263.492 142.878 262.712 142.925 261.943C136.851 260.557 132.238 257.21 130.955 253.096C130.512 253.041 130.084 252.899 129.696 252.677C129.309 252.455 128.969 252.159 128.697 251.804C128.425 251.45 128.226 251.045 128.112 250.614C127.998 250.182 127.971 249.732 128.032 249.289C128.093 248.847 128.242 248.421 128.469 248.037C128.697 247.653 128.998 247.317 129.356 247.051C129.714 246.784 130.122 246.591 130.555 246.483C130.989 246.375 131.439 246.354 131.88 246.422C134.595 242.016 141.316 238.898 149.178 238.898C151.496 238.898 153.714 239.17 155.76 239.664C155.993 235.836 156.895 232.983 157.972 232.983C159.191 232.983 160.186 236.641 160.241 241.23L160.457 241.333C162.225 237.613 164.315 235.087 165.356 235.529C166.464 235.999 165.977 239.67 164.284 243.853C165.571 244.997 166.546 246.295 167.131 247.693C169.751 251.919 171.374 257.79 171.374 264.281C171.374 267.232 171.038 270.056 170.426 272.655Z" fill="#4F46E5"/>
</svg>
